<mxfile host="app.diagrams.net" modified="2024-03-06T18:00:34.934Z" agent="Mozilla/5.0 (X11; Linux x86_64) AppleWebKit/537.36 (KHTML, like Gecko) Chrome/120.0.0.0 Safari/537.36" etag="2KqPOVNcfQZatdzAHGxu" version="24.0.2" type="device" pages="2">
  <diagram name="Page-1" id="OB6jtjafquq-3HuO-NXP">
    <mxGraphModel dx="1997" dy="1437" grid="1" gridSize="10" guides="1" tooltips="1" connect="1" arrows="1" fold="1" page="0" pageScale="1" pageWidth="850" pageHeight="1100" math="0" shadow="0">
      <root>
        <mxCell id="0" />
        <mxCell id="1" parent="0" />
        <mxCell id="aMZrm8kMUc6ImYU4cl2d-1" value="StatusService" style="swimlane;fontStyle=1;align=center;verticalAlign=top;childLayout=stackLayout;horizontal=1;startSize=26;horizontalStack=0;resizeParent=1;resizeParentMax=0;resizeLast=0;collapsible=1;marginBottom=0;whiteSpace=wrap;html=1;" parent="1" vertex="1">
          <mxGeometry x="330" y="480" width="340" height="106" as="geometry" />
        </mxCell>
        <mxCell id="aMZrm8kMUc6ImYU4cl2d-2" value="+ field: type" style="text;strokeColor=none;fillColor=none;align=left;verticalAlign=top;spacingLeft=4;spacingRight=4;overflow=hidden;rotatable=0;points=[[0,0.5],[1,0.5]];portConstraint=eastwest;whiteSpace=wrap;html=1;" parent="aMZrm8kMUc6ImYU4cl2d-1" vertex="1">
          <mxGeometry y="26" width="340" height="26" as="geometry" />
        </mxCell>
        <mxCell id="aMZrm8kMUc6ImYU4cl2d-3" value="" style="line;strokeWidth=1;fillColor=none;align=left;verticalAlign=middle;spacingTop=-1;spacingLeft=3;spacingRight=3;rotatable=0;labelPosition=right;points=[];portConstraint=eastwest;strokeColor=inherit;" parent="aMZrm8kMUc6ImYU4cl2d-1" vertex="1">
          <mxGeometry y="52" width="340" height="8" as="geometry" />
        </mxCell>
        <mxCell id="aMZrm8kMUc6ImYU4cl2d-4" value="+loadMoreStoryItems(AuthToken, User, number, Status|null)): Promise&amp;lt;[Status[], bool]&amp;gt;" style="text;strokeColor=none;fillColor=none;align=left;verticalAlign=top;spacingLeft=4;spacingRight=4;overflow=hidden;rotatable=0;points=[[0,0.5],[1,0.5]];portConstraint=eastwest;whiteSpace=wrap;html=1;" parent="aMZrm8kMUc6ImYU4cl2d-1" vertex="1">
          <mxGeometry y="60" width="340" height="46" as="geometry" />
        </mxCell>
        <mxCell id="aMZrm8kMUc6ImYU4cl2d-5" value="&amp;lt;&amp;lt;interface&amp;gt;&amp;gt;PagedItemView&amp;lt;T&amp;gt;" style="swimlane;fontStyle=1;align=center;verticalAlign=top;childLayout=stackLayout;horizontal=1;startSize=26;horizontalStack=0;resizeParent=1;resizeParentMax=0;resizeLast=0;collapsible=1;marginBottom=0;whiteSpace=wrap;html=1;" parent="1" vertex="1">
          <mxGeometry x="480" y="-240" width="280" height="60" as="geometry" />
        </mxCell>
        <mxCell id="aMZrm8kMUc6ImYU4cl2d-7" value="" style="line;strokeWidth=1;fillColor=none;align=left;verticalAlign=middle;spacingTop=-1;spacingLeft=3;spacingRight=3;rotatable=0;labelPosition=right;points=[];portConstraint=eastwest;strokeColor=inherit;" parent="aMZrm8kMUc6ImYU4cl2d-5" vertex="1">
          <mxGeometry y="26" width="280" height="8" as="geometry" />
        </mxCell>
        <mxCell id="aMZrm8kMUc6ImYU4cl2d-8" value="addItems(T[]): void" style="text;strokeColor=none;fillColor=none;align=left;verticalAlign=top;spacingLeft=4;spacingRight=4;overflow=hidden;rotatable=0;points=[[0,0.5],[1,0.5]];portConstraint=eastwest;whiteSpace=wrap;html=1;" parent="aMZrm8kMUc6ImYU4cl2d-5" vertex="1">
          <mxGeometry y="34" width="280" height="26" as="geometry" />
        </mxCell>
        <mxCell id="tO7bnWOYw4xZlIJd240I-3" style="edgeStyle=orthogonalEdgeStyle;rounded=0;orthogonalLoop=1;jettySize=auto;html=1;exitX=0.5;exitY=0;exitDx=0;exitDy=0;" edge="1" parent="1" source="aMZrm8kMUc6ImYU4cl2d-9">
          <mxGeometry relative="1" as="geometry">
            <mxPoint x="830" y="130" as="targetPoint" />
          </mxGeometry>
        </mxCell>
        <mxCell id="aMZrm8kMUc6ImYU4cl2d-9" value="ItemScroller" style="swimlane;fontStyle=1;align=center;verticalAlign=top;childLayout=stackLayout;horizontal=1;startSize=26;horizontalStack=0;resizeParent=1;resizeParentMax=0;resizeLast=0;collapsible=1;marginBottom=0;whiteSpace=wrap;html=1;" parent="1" vertex="1">
          <mxGeometry x="715" y="300" width="230" height="80" as="geometry" />
        </mxCell>
        <mxCell id="aMZrm8kMUc6ImYU4cl2d-11" value="" style="line;strokeWidth=1;fillColor=none;align=left;verticalAlign=middle;spacingTop=-1;spacingLeft=3;spacingRight=3;rotatable=0;labelPosition=right;points=[];portConstraint=eastwest;strokeColor=inherit;" parent="aMZrm8kMUc6ImYU4cl2d-9" vertex="1">
          <mxGeometry y="26" width="230" height="8" as="geometry" />
        </mxCell>
        <mxCell id="aMZrm8kMUc6ImYU4cl2d-12" value="listener: PagedItemView&amp;lt;Status&amp;gt;&lt;div&gt;presenter: StoryPresenter&lt;/div&gt;" style="text;strokeColor=none;fillColor=none;align=left;verticalAlign=top;spacingLeft=4;spacingRight=4;overflow=hidden;rotatable=0;points=[[0,0.5],[1,0.5]];portConstraint=eastwest;whiteSpace=wrap;html=1;" parent="aMZrm8kMUc6ImYU4cl2d-9" vertex="1">
          <mxGeometry y="34" width="230" height="46" as="geometry" />
        </mxCell>
        <mxCell id="aMZrm8kMUc6ImYU4cl2d-13" value="&amp;lt;&amp;lt;interface&amp;gt;&amp;gt; View" style="swimlane;fontStyle=1;align=center;verticalAlign=top;childLayout=stackLayout;horizontal=1;startSize=26;horizontalStack=0;resizeParent=1;resizeParentMax=0;resizeLast=0;collapsible=1;marginBottom=0;whiteSpace=wrap;html=1;" parent="1" vertex="1">
          <mxGeometry x="690" y="30" width="210" height="64" as="geometry" />
        </mxCell>
        <mxCell id="aMZrm8kMUc6ImYU4cl2d-15" value="" style="line;strokeWidth=1;fillColor=none;align=left;verticalAlign=middle;spacingTop=-1;spacingLeft=3;spacingRight=3;rotatable=0;labelPosition=right;points=[];portConstraint=eastwest;strokeColor=inherit;" parent="aMZrm8kMUc6ImYU4cl2d-13" vertex="1">
          <mxGeometry y="26" width="210" height="8" as="geometry" />
        </mxCell>
        <mxCell id="aMZrm8kMUc6ImYU4cl2d-16" value="displayErrorMessage(string): void" style="text;strokeColor=none;fillColor=none;align=left;verticalAlign=top;spacingLeft=4;spacingRight=4;overflow=hidden;rotatable=0;points=[[0,0.5],[1,0.5]];portConstraint=eastwest;whiteSpace=wrap;html=1;" parent="aMZrm8kMUc6ImYU4cl2d-13" vertex="1">
          <mxGeometry y="34" width="210" height="30" as="geometry" />
        </mxCell>
        <mxCell id="aMZrm8kMUc6ImYU4cl2d-17" value="Presenter&amp;lt;T extends View&lt;span style=&quot;background-color: initial;&quot;&gt;&amp;gt;&lt;/span&gt;" style="swimlane;fontStyle=1;align=center;verticalAlign=top;childLayout=stackLayout;horizontal=1;startSize=26;horizontalStack=0;resizeParent=1;resizeParentMax=0;resizeLast=0;collapsible=1;marginBottom=0;whiteSpace=wrap;html=1;" parent="1" vertex="1">
          <mxGeometry x="330" y="30" width="300" height="150" as="geometry" />
        </mxCell>
        <mxCell id="aMZrm8kMUc6ImYU4cl2d-18" value="- _view: View" style="text;strokeColor=none;fillColor=none;align=left;verticalAlign=top;spacingLeft=4;spacingRight=4;overflow=hidden;rotatable=0;points=[[0,0.5],[1,0.5]];portConstraint=eastwest;whiteSpace=wrap;html=1;" parent="aMZrm8kMUc6ImYU4cl2d-17" vertex="1">
          <mxGeometry y="26" width="300" height="26" as="geometry" />
        </mxCell>
        <mxCell id="aMZrm8kMUc6ImYU4cl2d-19" value="" style="line;strokeWidth=1;fillColor=none;align=left;verticalAlign=middle;spacingTop=-1;spacingLeft=3;spacingRight=3;rotatable=0;labelPosition=right;points=[];portConstraint=eastwest;strokeColor=inherit;" parent="aMZrm8kMUc6ImYU4cl2d-17" vertex="1">
          <mxGeometry y="52" width="300" height="8" as="geometry" />
        </mxCell>
        <mxCell id="aMZrm8kMUc6ImYU4cl2d-20" value="+ constructor(View): void&lt;div&gt;# get(): View as T&lt;/div&gt;&lt;div&gt;# doFailureReportingOperation(operation: (): Promise&amp;lt;void&amp;gt;, string): Promise&amp;lt;void&amp;gt;&amp;nbsp;&amp;nbsp;&lt;/div&gt;" style="text;strokeColor=none;fillColor=none;align=left;verticalAlign=top;spacingLeft=4;spacingRight=4;overflow=hidden;rotatable=0;points=[[0,0.5],[1,0.5]];portConstraint=eastwest;whiteSpace=wrap;html=1;" parent="aMZrm8kMUc6ImYU4cl2d-17" vertex="1">
          <mxGeometry y="60" width="300" height="90" as="geometry" />
        </mxCell>
        <mxCell id="aMZrm8kMUc6ImYU4cl2d-21" value="StoryPresenter" style="swimlane;fontStyle=1;align=center;verticalAlign=top;childLayout=stackLayout;horizontal=1;startSize=26;horizontalStack=0;resizeParent=1;resizeParentMax=0;resizeLast=0;collapsible=1;marginBottom=0;whiteSpace=wrap;html=1;" parent="1" vertex="1">
          <mxGeometry x="350" y="260" width="250" height="170" as="geometry" />
        </mxCell>
        <mxCell id="aMZrm8kMUc6ImYU4cl2d-22" value="+ field: type" style="text;strokeColor=none;fillColor=none;align=left;verticalAlign=top;spacingLeft=4;spacingRight=4;overflow=hidden;rotatable=0;points=[[0,0.5],[1,0.5]];portConstraint=eastwest;whiteSpace=wrap;html=1;" parent="aMZrm8kMUc6ImYU4cl2d-21" vertex="1">
          <mxGeometry y="26" width="250" height="26" as="geometry" />
        </mxCell>
        <mxCell id="aMZrm8kMUc6ImYU4cl2d-23" value="" style="line;strokeWidth=1;fillColor=none;align=left;verticalAlign=middle;spacingTop=-1;spacingLeft=3;spacingRight=3;rotatable=0;labelPosition=right;points=[];portConstraint=eastwest;strokeColor=inherit;" parent="aMZrm8kMUc6ImYU4cl2d-21" vertex="1">
          <mxGeometry y="52" width="250" height="8" as="geometry" />
        </mxCell>
        <mxCell id="aMZrm8kMUc6ImYU4cl2d-24" value="# getItemDescription(): string&lt;div&gt;# getMoreItems(): Promise&amp;lt;[Status[], bool]&amp;gt;&lt;/div&gt;" style="text;strokeColor=none;fillColor=none;align=left;verticalAlign=top;spacingLeft=4;spacingRight=4;overflow=hidden;rotatable=0;points=[[0,0.5],[1,0.5]];portConstraint=eastwest;whiteSpace=wrap;html=1;" parent="aMZrm8kMUc6ImYU4cl2d-21" vertex="1">
          <mxGeometry y="60" width="250" height="110" as="geometry" />
        </mxCell>
        <mxCell id="aMZrm8kMUc6ImYU4cl2d-25" value="{abstract} &lt;i&gt;StatusItemPresenter&lt;/i&gt;" style="swimlane;fontStyle=1;align=center;verticalAlign=top;childLayout=stackLayout;horizontal=1;startSize=26;horizontalStack=0;resizeParent=1;resizeParentMax=0;resizeLast=0;collapsible=1;marginBottom=0;whiteSpace=wrap;html=1;" parent="1" vertex="1">
          <mxGeometry x="-30" y="260" width="260" height="60" as="geometry" />
        </mxCell>
        <mxCell id="aMZrm8kMUc6ImYU4cl2d-27" value="" style="line;strokeWidth=1;fillColor=none;align=left;verticalAlign=middle;spacingTop=-1;spacingLeft=3;spacingRight=3;rotatable=0;labelPosition=right;points=[];portConstraint=eastwest;strokeColor=inherit;" parent="aMZrm8kMUc6ImYU4cl2d-25" vertex="1">
          <mxGeometry y="26" width="260" height="8" as="geometry" />
        </mxCell>
        <mxCell id="aMZrm8kMUc6ImYU4cl2d-28" value="+ createService(): StatusService" style="text;strokeColor=none;fillColor=none;align=left;verticalAlign=top;spacingLeft=4;spacingRight=4;overflow=hidden;rotatable=0;points=[[0,0.5],[1,0.5]];portConstraint=eastwest;whiteSpace=wrap;html=1;" parent="aMZrm8kMUc6ImYU4cl2d-25" vertex="1">
          <mxGeometry y="34" width="260" height="26" as="geometry" />
        </mxCell>
        <mxCell id="aMZrm8kMUc6ImYU4cl2d-29" value="{abstract} &lt;i&gt;PagedItemPresenter&amp;lt;T, U&amp;gt;&lt;/i&gt;" style="swimlane;fontStyle=1;align=center;verticalAlign=top;childLayout=stackLayout;horizontal=1;startSize=26;horizontalStack=0;resizeParent=1;resizeParentMax=0;resizeLast=0;collapsible=1;marginBottom=0;whiteSpace=wrap;html=1;" parent="1" vertex="1">
          <mxGeometry x="-60" y="-110" width="300" height="270" as="geometry" />
        </mxCell>
        <mxCell id="aMZrm8kMUc6ImYU4cl2d-30" value="- _hasMoreItems: bool&lt;div&gt;- _lastItem: T | null&lt;/div&gt;&lt;div&gt;- _service: U&lt;/div&gt;" style="text;strokeColor=none;fillColor=none;align=left;verticalAlign=top;spacingLeft=4;spacingRight=4;overflow=hidden;rotatable=0;points=[[0,0.5],[1,0.5]];portConstraint=eastwest;whiteSpace=wrap;html=1;" parent="aMZrm8kMUc6ImYU4cl2d-29" vertex="1">
          <mxGeometry y="26" width="300" height="64" as="geometry" />
        </mxCell>
        <mxCell id="aMZrm8kMUc6ImYU4cl2d-31" value="" style="line;strokeWidth=1;fillColor=none;align=left;verticalAlign=middle;spacingTop=-1;spacingLeft=3;spacingRight=3;rotatable=0;labelPosition=right;points=[];portConstraint=eastwest;strokeColor=inherit;" parent="aMZrm8kMUc6ImYU4cl2d-29" vertex="1">
          <mxGeometry y="90" width="300" height="8" as="geometry" />
        </mxCell>
        <mxCell id="aMZrm8kMUc6ImYU4cl2d-32" value="+ constructor(PagedItemView&amp;lt;T&amp;gt;): void&lt;div&gt;+ get hasMoreItems(): : bool&lt;/div&gt;&lt;div&gt;+ set hasMoreItems(bool): void&lt;/div&gt;&lt;div&gt;+ get lastItem(): T&lt;/div&gt;&lt;div&gt;+ set lastITem(T): void&lt;/div&gt;&lt;div&gt;# get service(): U&lt;/div&gt;&lt;div&gt;+ loadMoreItems(AuthToken, User):Promise&amp;lt;void&amp;gt;&lt;/div&gt;&lt;div&gt;- &lt;i&gt;createService&lt;/i&gt;(): U&lt;/div&gt;&lt;div&gt;- &lt;i&gt;getMoreItems&lt;/i&gt;(AuthToken, User): Promise&amp;lt;T[], bool&amp;gt;&amp;nbsp;&lt;/div&gt;&lt;div&gt;- &lt;i&gt;getItemDescription&lt;/i&gt;(): string&lt;/div&gt;" style="text;strokeColor=none;fillColor=none;align=left;verticalAlign=top;spacingLeft=4;spacingRight=4;overflow=hidden;rotatable=0;points=[[0,0.5],[1,0.5]];portConstraint=eastwest;whiteSpace=wrap;html=1;" parent="aMZrm8kMUc6ImYU4cl2d-29" vertex="1">
          <mxGeometry y="98" width="300" height="172" as="geometry" />
        </mxCell>
        <mxCell id="aMZrm8kMUc6ImYU4cl2d-34" value="Extends" style="endArrow=block;endSize=16;endFill=0;html=1;rounded=0;entryX=0;entryY=0.637;entryDx=0;entryDy=0;entryPerimeter=0;" parent="1" target="aMZrm8kMUc6ImYU4cl2d-18" edge="1">
          <mxGeometry width="160" relative="1" as="geometry">
            <mxPoint x="230" y="72.57" as="sourcePoint" />
            <mxPoint x="370" y="70" as="targetPoint" />
          </mxGeometry>
        </mxCell>
        <mxCell id="aMZrm8kMUc6ImYU4cl2d-36" value="Extends" style="endArrow=block;endSize=16;endFill=0;html=1;rounded=0;exitX=0.5;exitY=0;exitDx=0;exitDy=0;" parent="1" source="aMZrm8kMUc6ImYU4cl2d-25" edge="1">
          <mxGeometry width="160" relative="1" as="geometry">
            <mxPoint x="160" y="230" as="sourcePoint" />
            <mxPoint x="100" y="170" as="targetPoint" />
          </mxGeometry>
        </mxCell>
        <mxCell id="aMZrm8kMUc6ImYU4cl2d-37" value="Extends" style="endArrow=block;endSize=16;endFill=0;html=1;rounded=0;exitX=0;exitY=0.538;exitDx=0;exitDy=0;entryX=1.02;entryY=0.813;entryDx=0;entryDy=0;entryPerimeter=0;exitPerimeter=0;" parent="1" source="aMZrm8kMUc6ImYU4cl2d-22" edge="1">
          <mxGeometry width="160" relative="1" as="geometry">
            <mxPoint x="344.8" y="303.93" as="sourcePoint" />
            <mxPoint x="230.00000000000006" y="302.0679999999999" as="targetPoint" />
          </mxGeometry>
        </mxCell>
        <mxCell id="aMZrm8kMUc6ImYU4cl2d-38" value="" style="endArrow=block;dashed=1;endFill=0;endSize=12;html=1;rounded=0;exitX=1;exitY=0.5;exitDx=0;exitDy=0;entryX=0;entryY=0.5;entryDx=0;entryDy=0;" parent="1" source="aMZrm8kMUc6ImYU4cl2d-18" edge="1">
          <mxGeometry width="160" relative="1" as="geometry">
            <mxPoint x="540" y="170" as="sourcePoint" />
            <mxPoint x="690" y="69" as="targetPoint" />
          </mxGeometry>
        </mxCell>
        <mxCell id="aMZrm8kMUc6ImYU4cl2d-39" value="&amp;lt;&amp;lt;create&amp;gt;&amp;gt;" style="endArrow=open;endSize=12;dashed=1;html=1;rounded=0;exitX=0.75;exitY=0;exitDx=0;exitDy=0;entryX=0;entryY=0.5;entryDx=0;entryDy=0;" parent="1" source="aMZrm8kMUc6ImYU4cl2d-29" edge="1">
          <mxGeometry width="160" relative="1" as="geometry">
            <mxPoint x="320" y="-140" as="sourcePoint" />
            <mxPoint x="480" y="-201" as="targetPoint" />
            <Array as="points">
              <mxPoint x="165" y="-200" />
            </Array>
          </mxGeometry>
        </mxCell>
        <mxCell id="aMZrm8kMUc6ImYU4cl2d-40" value="Extends" style="endArrow=block;endSize=16;endFill=0;html=1;rounded=0;exitX=1;exitY=0.5;exitDx=0;exitDy=0;entryX=0.5;entryY=0;entryDx=0;entryDy=0;" parent="1" target="aMZrm8kMUc6ImYU4cl2d-13" edge="1">
          <mxGeometry width="160" relative="1" as="geometry">
            <mxPoint x="760" y="-201" as="sourcePoint" />
            <mxPoint x="820" y="-60" as="targetPoint" />
            <Array as="points">
              <mxPoint x="795" y="-201" />
            </Array>
          </mxGeometry>
        </mxCell>
        <mxCell id="aMZrm8kMUc6ImYU4cl2d-41" value="&amp;lt;&amp;lt;create&amp;gt;&amp;gt;" style="endArrow=open;endSize=12;dashed=1;html=1;rounded=0;exitX=0.477;exitY=1.058;exitDx=0;exitDy=0;exitPerimeter=0;entryX=0;entryY=0.5;entryDx=0;entryDy=0;" parent="1" source="aMZrm8kMUc6ImYU4cl2d-28" target="aMZrm8kMUc6ImYU4cl2d-2" edge="1">
          <mxGeometry width="160" relative="1" as="geometry">
            <mxPoint x="80" y="410" as="sourcePoint" />
            <mxPoint x="240" y="410" as="targetPoint" />
            <Array as="points">
              <mxPoint x="94" y="520" />
            </Array>
          </mxGeometry>
        </mxCell>
        <mxCell id="tO7bnWOYw4xZlIJd240I-1" style="edgeStyle=orthogonalEdgeStyle;rounded=0;orthogonalLoop=1;jettySize=auto;html=1;exitX=0;exitY=0.5;exitDx=0;exitDy=0;entryX=1.017;entryY=0.344;entryDx=0;entryDy=0;entryPerimeter=0;" edge="1" parent="1" source="aMZrm8kMUc6ImYU4cl2d-12" target="aMZrm8kMUc6ImYU4cl2d-24">
          <mxGeometry relative="1" as="geometry" />
        </mxCell>
      </root>
    </mxGraphModel>
  </diagram>
  <diagram id="00LyPmwnndTJX8NZXttM" name="Page-2">
    <mxGraphModel dx="1597" dy="1037" grid="1" gridSize="10" guides="1" tooltips="1" connect="1" arrows="1" fold="1" page="0" pageScale="1" pageWidth="850" pageHeight="1100" math="0" shadow="0">
      <root>
        <mxCell id="0" />
        <mxCell id="1" parent="0" />
      </root>
    </mxGraphModel>
  </diagram>
</mxfile>
